<?xml version="1.0" encoding="utf-8"?>
<!-- Generator: Adobe Illustrator 21.1.0, SVG Export Plug-In . SVG Version: 6.00 Build 0)  -->
<svg version="1.1" id="Layer_1" xmlns="http://www.w3.org/2000/svg" xmlns:xlink="http://www.w3.org/1999/xlink" x="0px" y="0px"
	 viewBox="0 0 210 39" style="enable-background:new 0 0 210 39;" xml:space="preserve">
<style type="text/css">
	.st0{fill:#4A4A4A;}
</style>
<title>userology_logo</title>
<desc>Created with Sketch.</desc>
<g id="Homepage">
	<g id="Home-Copy" transform="translate(-63.000000, -60.000000)">
		<g id="userology_logo" transform="translate(63.000000, 60.000000)">
			<path id="Fill-1" class="st0" d="M15.4,7.1h9.3V0h-9.3V7.1z M25.4,10.7h9.3V3.6h-9.3V10.7z M5.3,10.7h9.3V3.6H5.3V10.7z
				 M30.7,18.6H40v-7.1h-9.3V18.6z M0,18.6h9.3v-7.1H0V18.6z M30.7,26.5H40v-7.1h-9.3V26.5z M0,26.5h9.3v-7.1H0V26.5z M25.4,34.4
				h9.3v-7.1h-9.3V34.4z M5.3,34.4h9.3v-7.1H5.3V34.4z M15.4,38h9.3v-7.1h-9.3V38z"/>
			<path id="Fill-2" class="st0" d="M15.4,7.1h9.3V0h-9.3V7.1z M25.4,10.7h9.3V3.6h-9.3V10.7z M5.3,10.7h9.3V3.6H5.3V10.7z
				 M30.7,18.6H40v-7.1h-9.3V18.6z M0,18.6h9.3v-7.1H0V18.6z M30.7,26.5H40v-7.1h-9.3V26.5z M0,26.5h9.3v-7.1H0V26.5z M25.4,34.4
				h9.3v-7.1h-9.3V34.4z M5.3,34.4h9.3v-7.1H5.3V34.4z M15.4,38h9.3v-7.1h-9.3V38z"/>
			<g id="Group-21" transform="translate(51.000000, 7.000000)">
				<path id="Fill-3" class="st0" d="M20.4,12.5c0,6-2.2,10.8-9.9,10.8c-7.6,0-9.9-4.8-9.9-10.8V0.2h5.7V12c0,4.5,1.1,6.2,4.2,6.2
					c3.2,0,4.2-1.8,4.2-6.2V0.2h5.7V12.5z"/>
				<path id="Fill-5" class="st0" d="M24.4,17.5c1,0.7,3.5,1.7,5.9,1.7c1.4,0,2.3-0.3,2.3-1.3c0-1-1-1.1-2.1-1.3
					c-4.4-0.7-7.1-1.2-7.1-5.1c0-3.5,3.8-5.2,7.7-5.2c2.3,0,4.6,0.5,6.3,1.6l-1.5,3.5c-1.3-0.6-3.4-1.1-5-1.1
					c-1.2,0-2.2,0.3-2.2,1.1c0,0.8,0.7,1,1.6,1.1c4.3,0.7,7.6,1,7.6,5.5c0,3.5-3.8,5.1-7.5,5.1c-2.8,0-5.8-0.8-7.5-2.2L24.4,17.5z"
					/>
				<path id="Fill-7" class="st0" d="M51.7,13.4c0-0.3,0-0.6-0.1-0.8c-0.3-1.5-1.5-2.1-3.3-2.1c-2.2,0-3.3,1.3-3.6,2.8l0,0.1H51.7z
					 M55.5,20.6c-1.6,1.7-4.1,2.8-7.3,2.8c-5.8,0-8.9-3.9-8.9-8.5c0-4.6,3.1-8.5,8.9-8.5c5.7,0,8.6,3.6,8.6,8.3c0,0.6,0,1.2-0.1,1.7
					H44.7c0.5,2,2,2.9,4,2.9c1.5,0,3.2-0.5,4.5-1.4L55.5,20.6z"/>
				<path id="Fill-9" class="st0" d="M68.8,10.7h-1c-0.9,0-2.2,0.3-3.4,1.9V23H59V6.7h4.8l0.3,2.1c1.1-1.4,2.6-2.5,4.6-2.6l0.2,0
					L68.8,10.7z"/>
				<path id="Fill-11" class="st0" d="M79,10.7c-2.3,0-3.8,1.5-3.8,4.2c0,2.7,1.6,4.2,3.8,4.2c2.3,0,3.8-1.4,3.8-4.2
					C82.9,12.1,81.3,10.7,79,10.7L79,10.7z M88.4,14.9c0,4.7-3.2,8.5-9.3,8.5c-6.1,0-9.3-3.9-9.3-8.5c0-4.6,3.2-8.5,9.3-8.5
					C85,6.4,88.4,10.1,88.4,14.9L88.4,14.9z"/>
				<path id="Fill-13" class="st0" d="M96.2,16.3c0,1.1,0.3,1.8,0.9,2.2c0.6,0.4,1.5,0.6,2.7,0.6v4.1c-0.4,0-0.8,0-1.2,0
					c-2,0-3.8-0.4-5.2-1.2c-1.7-1.1-2.7-2.9-2.7-5.7V0h5.5V16.3z"/>
				<path id="Fill-15" class="st0" d="M106.2,14.9c0,2.7,1.6,4.2,3.8,4.2c2.3,0,3.8-1.4,3.8-4.2c0-2.8-1.6-4.2-3.8-4.2
					C107.8,10.7,106.2,12.2,106.2,14.9 M119.4,14.9c0,4.7-3.2,8.5-9.3,8.5c-6.1,0-9.3-3.9-9.3-8.5c0-4.6,3.2-8.5,9.3-8.5
					C116.1,6.4,119.4,10.1,119.4,14.9"/>
				<path id="Fill-17" class="st0" d="M126.5,12.2c0,1.6,0.8,2.1,2.6,2.1c1.7,0,2.6-0.5,2.6-2.1c0-1.6-0.9-2.1-2.6-2.1
					C127.3,10.1,126.5,10.6,126.5,12.2L126.5,12.2z M125.9,25.9c0,1.2,1.1,1.4,3.5,1.4c2.4,0,3.5-0.3,3.5-1.4c0-1.3-0.9-1.4-4-1.4
					C126.6,24.5,125.9,24.7,125.9,25.9L125.9,25.9z M129.5,20.5c3.6,0,9,0.3,9,5.4c0,4.5-4.8,5.5-8.8,5.5c-4.1,0-9.2-0.8-9.2-5.5
					c0-2.1,0.9-3.4,2.3-4.2c-0.6-0.4-0.9-0.9-1.1-1.4c0-0.2-0.1-0.4-0.1-0.6c0-1,0.6-2.1,1.7-2.9c-1.1-1-1.8-2.5-1.8-4.6
					c0-4.3,3.2-6.3,7.5-6.3c1.6,0,3.1,0.3,4.3,0.9h5.2v3.2l-2.4,0.3c0.3,0.5,0.5,1.2,0.5,2c0,4.6-3.1,6.3-7.5,6.3
					c-0.7,0-1.3-0.1-1.9-0.2c-0.5,0.3-0.7,0.7-0.7,1.1c0,0.5,0.3,0.9,1,1H129.5z"/>
				<path id="Fill-19" class="st0" d="M150.6,26c-0.9,2.2-2.2,3.5-3.8,4.3c-1.6,0.7-3.5,0.9-5.4,0.9v-4.1c1.7,0,2.8-0.2,3.6-0.6
					c0.8-0.5,1.2-1.2,1.6-2.1L147,23h-0.6l-6.6-16.3h5.6l3.7,10.4l3.8-10.4h5.6L150.6,26z"/>
			</g>
		</g>
	</g>
</g>
</svg>
